HIERARCHY
ROOT Hips
{
	OFFSET 0.000000 103.266502 0.000000
	CHANNELS 6 Xposition Yposition Zposition Xrotation Yrotation Zrotation 
	JOINT Spine
	{
		OFFSET -0.002400 12.777504 0.315300
		CHANNELS 3 Xrotation Yrotation Zrotation
		JOINT Spine1
		{
			OFFSET -0.002067 5.816869 0.032633
			CHANNELS 3 Xrotation Yrotation Zrotation
			JOINT Spine1_split
			{
				OFFSET -0.002067 5.816869 0.032633
				CHANNELS 3 Xrotation Yrotation Zrotation
				JOINT Spine2
				{
					OFFSET -0.002067 5.816869 0.032633
					CHANNELS 3 Xrotation Yrotation Zrotation
					JOINT Neck
					{
						OFFSET -0.003700 21.199493 -0.826900
						CHANNELS 3 Xrotation Yrotation Zrotation
						JOINT Head
						{
							OFFSET 0.000000 20.442200 4.834800
							CHANNELS 3 Xrotation Yrotation Zrotation
							JOINT HeadTop_End
							{
								OFFSET 0.000000 34.668396 4.968400
								CHANNELS 3 Xrotation Yrotation Zrotation
								End Site
								{
									OFFSET 0.000000 0.000000 0.000000
								}
							}
						}
					}
					JOINT LeftShoulder
					{
						OFFSET 3.288150 8.794197 -1.372250
						CHANNELS 3 Xrotation Yrotation Zrotation
						JOINT LeftShoulder_split
						{
							OFFSET 3.288150 8.794197 -1.372250
							CHANNELS 3 Xrotation Yrotation Zrotation
							JOINT LeftArm
							{
								OFFSET 11.953299 -2.279007 -0.146200
								CHANNELS 3 Xrotation Yrotation Zrotation
								JOINT LeftForeArm
								{
									OFFSET 18.448900 0.000000 0.000000
									CHANNELS 3 Xrotation Yrotation Zrotation
									JOINT LeftHand
									{
										OFFSET 29.527798 0.000000 0.000000
										CHANNELS 3 Xrotation Yrotation Zrotation
										JOINT LeftHandThumb1
										{
											OFFSET 10.739754 -2.369614 9.225399
											CHANNELS 3 Xrotation Yrotation Zrotation
											JOINT LeftHandThumb2
											{
												OFFSET 4.926170 -2.844131 2.844125
												CHANNELS 3 Xrotation Yrotation Zrotation
												JOINT LeftHandThumb3
												{
													OFFSET 4.614891 -2.664413 2.664409
													CHANNELS 3 Xrotation Yrotation Zrotation
													JOINT LeftHandThumb4
													{
														OFFSET 4.432465 -2.559082 2.559083
														CHANNELS 3 Xrotation Yrotation Zrotation
														End Site
														{
															OFFSET 0.000000 0.000000 0.000000
														}
													}
												}
											}
										}
										JOINT LeftHandIndex1
										{
											OFFSET 26.467674 0.187653 6.405298
											CHANNELS 3 Xrotation Yrotation Zrotation
											JOINT LeftHandIndex2
											{
												OFFSET 8.792900 0.000000 0.000000
												CHANNELS 3 Xrotation Yrotation Zrotation
												JOINT LeftHandIndex3
												{
													OFFSET 10.075203 0.000000 0.000000
													CHANNELS 3 Xrotation Yrotation Zrotation
													End Site
													{
														OFFSET 0.000000 0.000000 0.000000
													}
												}
											}
										}
										JOINT LeftHandMiddle1
										{
											OFFSET 25.764404 0.000000 0.000000
											CHANNELS 3 Xrotation Yrotation Zrotation
											JOINT LeftHandMiddle2
											{
												OFFSET 9.393974 0.000000 0.000000
												CHANNELS 3 Xrotation Yrotation Zrotation
												JOINT LeftHandMiddle3
												{
													OFFSET 10.771950 0.000000 0.000000
													CHANNELS 3 Xrotation Yrotation Zrotation
													End Site
													{
														OFFSET 0.000000 0.000000 0.000000
													}
												}
											}
										}
										JOINT LeftHandRing1
										{
											OFFSET 24.660927 0.144547 -6.225808
											CHANNELS 3 Xrotation Yrotation Zrotation
											JOINT LeftHandRing2
											{
												OFFSET 9.393799 0.000000 0.000000
												CHANNELS 3 Xrotation Yrotation Zrotation
												JOINT LeftHandRing3
												{
													OFFSET 9.928497 0.000000 0.000000
													CHANNELS 3 Xrotation Yrotation Zrotation
													End Site
													{
														OFFSET 0.000000 0.000000 0.000000
													}
												}
											}
										}
										JOINT LeftHandPinky1
										{
											OFFSET 23.655350 0.125290 -12.815412
											CHANNELS 3 Xrotation Yrotation Zrotation
											JOINT LeftHandPinky2
											{
												OFFSET 8.425102 0.000000 0.000000
												CHANNELS 3 Xrotation Yrotation Zrotation
												JOINT LeftHandPinky3
												{
													OFFSET 8.147003 0.000000 0.000000
													CHANNELS 3 Xrotation Yrotation Zrotation
													End Site
													{
														OFFSET 0.000000 0.000000 0.000000
													}
												}
											}
										}
									}
								}
							}
						}
					}
					JOINT RightShoulder
					{
						OFFSET -3.249400 8.794197 -1.372250
						CHANNELS 3 Xrotation Yrotation Zrotation
						JOINT RightShoulder_split
						{
							OFFSET -3.249400 8.794197 -1.372250
							CHANNELS 3 Xrotation Yrotation Zrotation
							JOINT RightArm
							{
								OFFSET -11.953299 -2.279007 -0.146200
								CHANNELS 3 Xrotation Yrotation Zrotation
								JOINT RightForeArm
								{
									OFFSET -18.448900 0.000000 0.000000
									CHANNELS 3 Xrotation Yrotation Zrotation
									JOINT RightHand
									{
										OFFSET -29.527802 0.000000 0.000000
										CHANNELS 3 Xrotation Yrotation Zrotation
										JOINT RightHandThumb1
										{
											OFFSET -10.739754 -2.369614 9.225399
											CHANNELS 3 Xrotation Yrotation Zrotation
											JOINT RightHandThumb2
											{
												OFFSET -4.926170 -2.844131 2.844125
												CHANNELS 3 Xrotation Yrotation Zrotation
												JOINT RightHandThumb3
												{
													OFFSET -4.614891 -2.664413 2.664409
													CHANNELS 3 Xrotation Yrotation Zrotation
													JOINT RightHandThumb4
													{
														OFFSET -4.432465 -2.559082 2.559083
														CHANNELS 3 Xrotation Yrotation Zrotation
														End Site
														{
															OFFSET 0.000000 0.000000 0.000000
														}
													}
												}
											}
										}
										JOINT RightHandIndex1
										{
											OFFSET -26.467674 0.187653 6.405298
											CHANNELS 3 Xrotation Yrotation Zrotation
											JOINT RightHandIndex2
											{
												OFFSET -8.792900 0.000000 0.000000
												CHANNELS 3 Xrotation Yrotation Zrotation
												JOINT RightHandIndex3
												{
													OFFSET -10.075203 0.000000 0.000000
													CHANNELS 3 Xrotation Yrotation Zrotation
													End Site
													{
														OFFSET 0.000000 0.000000 0.000000
													}
												}
											}
										}
										JOINT RightHandMiddle1
										{
											OFFSET -25.764404 0.000000 0.000000
											CHANNELS 3 Xrotation Yrotation Zrotation
											JOINT RightHandMiddle2
											{
												OFFSET -9.393974 0.000000 0.000000
												CHANNELS 3 Xrotation Yrotation Zrotation
												JOINT RightHandMiddle3
												{
													OFFSET -10.771950 0.000000 0.000000
													CHANNELS 3 Xrotation Yrotation Zrotation
													End Site
													{
														OFFSET 0.000000 0.000000 0.000000
													}
												}
											}
										}
										JOINT RightHandRing1
										{
											OFFSET -24.660927 0.144547 -6.225808
											CHANNELS 3 Xrotation Yrotation Zrotation
											JOINT RightHandRing2
											{
												OFFSET -9.393799 0.000000 0.000000
												CHANNELS 3 Xrotation Yrotation Zrotation
												JOINT RightHandRing3
												{
													OFFSET -9.928497 0.000000 0.000000
													CHANNELS 3 Xrotation Yrotation Zrotation
													End Site
													{
														OFFSET 0.000000 0.000000 0.000000
													}
												}
											}
										}
										JOINT RightHandPinky1
										{
											OFFSET -23.655350 0.125290 -12.815412
											CHANNELS 3 Xrotation Yrotation Zrotation
											JOINT RightHandPinky2
											{
												OFFSET -8.425102 0.000000 0.000000
												CHANNELS 3 Xrotation Yrotation Zrotation
												JOINT RightHandPinky3
												{
													OFFSET -8.147003 0.000000 0.000000
													CHANNELS 3 Xrotation Yrotation Zrotation
													End Site
													{
														OFFSET 0.000000 0.000000 0.000000
													}
												}
											}
										}
									}
								}
							}
						}
					}
				}
			}
		}
	}
	JOINT LeftUpLeg
	{
		OFFSET 11.394100 -6.187798 -0.413800
		CHANNELS 3 Xrotation Yrotation Zrotation
		JOINT LeftLeg
		{
			OFFSET 0.430247 -32.302673 3.732800
			CHANNELS 3 Xrotation Yrotation Zrotation
			JOINT LeftFoot
			{
				OFFSET -0.430247 -48.264931 -6.423300
				CHANNELS 3 Xrotation Yrotation Zrotation
				JOINT LeftToeBase
				{
					OFFSET 4.230900 -16.068199 23.438400
					CHANNELS 3 Xrotation Yrotation Zrotation
					JOINT LeftToe_End
					{
						OFFSET 4.510700 0.695400 19.974600
						CHANNELS 3 Xrotation Yrotation Zrotation
						End Site
						{
							OFFSET 0.000000 0.000000 0.000000
						}
					}
				}
			}
		}
	}
	JOINT RightUpLeg
	{
		OFFSET -11.333700 -6.187798 -0.413800
		CHANNELS 3 Xrotation Yrotation Zrotation
		JOINT RightLeg
		{
			OFFSET -0.430392 -32.302628 3.733000
			CHANNELS 3 Xrotation Yrotation Zrotation
			JOINT RightFoot
			{
				OFFSET 0.430392 -48.264973 -6.423500
				CHANNELS 3 Xrotation Yrotation Zrotation
				JOINT RightToeBase
				{
					OFFSET -4.230900 -16.068199 23.438400
					CHANNELS 3 Xrotation Yrotation Zrotation
					JOINT RightToe_End
					{
						OFFSET -4.510700 0.695400 19.974600
						CHANNELS 3 Xrotation Yrotation Zrotation
						End Site
						{
							OFFSET 0.000000 0.000000 0.000000
						}
					}
				}
			}
		}
	}
}
MOTION
Frames: 4
Frame Time: 0.016667
0.312844 58.154747 7.141422 10.254248 1.215197 2.010413 6.860962 -1.772988 -1.443153 12.577069 -1.034805 -1.095899 0.000000 0.000000 0.000000 12.570157 -1.077110 -1.099538 -0.427487 -0.653575 -0.369724 -52.699858 2.125732 -7.829015 -0.000001 0.000000 -0.000000 2.038157 -12.501287 5.547279 0.000000 0.000000 0.000000 -60.008505 -29.861693 -11.556449 -0.000005 -114.301221 0.000000 -11.910107 -28.831301 34.008051 20.858788 4.366379 2.192822 0.280535 11.989277 -27.457528 -10.342411 22.892274 8.820839 -0.000001 -0.000001 -0.000003 0.425211 1.444475 -13.828673 0.836196 3.018168 -30.964967 -0.000000 -0.000000 0.000001 0.528400 5.942697 -8.228442 0.952406 3.203616 -33.106139 0.000000 -0.000000 -0.000001 0.930011 7.386337 -10.768661 1.068076 3.374089 -35.122161 0.000001 -0.000000 0.000001 0.270927 7.579823 -14.433274 0.945469 3.192959 -32.981686 0.000000 0.000000 -0.000001 1.433094 10.850708 -3.496005 0.000000 0.000000 0.000000 -73.306870 34.141250 27.922114 0.000005 117.257846 -0.000012 11.925578 3.902116 -19.975986 0.467963 9.476105 18.594376 2.135789 -23.166513 17.501147 -9.703698 -24.362253 -9.841081 -0.000000 0.000005 -0.000000 2.448385 2.152565 1.738858 0.603757 -2.295181 29.472495 -0.000002 -0.000000 0.000001 -0.030331 -3.619540 -3.130914 1.500621 -3.425970 47.297769 -0.000001 0.000000 -0.000000 0.239631 -6.342802 2.621633 0.613274 -2.311946 29.709472 -0.000001 -0.000003 0.000000 -11.640143 -11.617292 13.904424 0.284060 -1.603168 20.094432 -0.000000 -0.000001 -0.000001 -112.408733 -9.543882 8.257780 85.571362 7.896050 0.207580 18.404949 -8.017811 -7.150880 -0.103114 0.000005 0.000000 -0.000000 -0.000001 -0.000000 -114.281359 13.153274 -5.073780 86.379388 -7.178079 -1.896497 19.589818 1.311443 8.543024 -0.191630 0.000003 0.000001 -0.000000 0.000000 -0.000000 
0.328828 58.095657 7.085709 10.524267 1.318071 2.012171 7.086751 -1.734767 -1.440277 12.767378 -1.020629 -1.140128 0.000000 0.000000 0.000000 12.760486 -1.062330 -1.143888 1.301021 -0.746534 -0.517728 -52.329785 1.916441 -7.951302 -0.000001 -0.000000 -0.000000 2.068308 -12.394304 6.151575 0.000000 0.000000 0.000000 -58.624463 -28.929884 -12.183160 0.000073 -114.948040 0.000068 -11.192805 -27.755679 33.451118 20.859669 4.363828 2.192679 0.280843 11.988505 -27.457586 -10.341908 22.894410 8.821847 -0.000001 0.000000 0.000000 0.424906 1.444533 -13.827435 0.836211 3.018190 -30.965223 0.000001 0.000000 0.000001 0.528584 5.943461 -8.229843 0.952407 3.203616 -33.106118 0.000000 0.000000 -0.000001 0.929984 7.386360 -10.768202 1.068076 3.374083 -35.122089 -0.000000 -0.000000 0.000001 0.271097 7.580056 -14.432502 0.945447 3.192935 -32.981399 0.000000 0.000000 0.000001 1.461460 11.134546 -3.330571 0.000000 0.000000 0.000000 -71.860482 33.821656 27.199861 0.000009 117.434475 -0.000013 12.138203 3.880016 -18.450873 0.466651 9.475925 18.593612 2.136567 -23.165295 17.504134 -9.701732 -24.360894 -9.839271 0.000001 0.000005 0.000002 2.449271 2.151592 1.737206 0.603722 -2.295119 29.471505 -0.000001 0.000001 0.000001 -0.030350 -3.619683 -3.131629 1.500579 -3.425940 47.297284 -0.000001 0.000002 0.000000 0.239628 -6.342690 2.621595 0.613282 -2.311941 29.709434 -0.000000 -0.000002 0.000001 -11.640364 -11.617686 13.902615 0.284039 -1.603104 20.093583 -0.000000 -0.000001 -0.000001 -112.764668 -9.474577 8.151574 85.476573 7.919921 0.207602 18.564283 -8.019586 -7.061655 -0.103114 0.000004 0.000000 0.000000 -0.000001 0.000000 -114.604864 13.273741 -5.057192 86.329684 -7.272527 -1.897302 19.719692 1.332552 8.570554 -0.191630 0.000002 0.000001 0.000000 0.000000 0.000000 
0.351238 58.037209 7.063102 10.813634 1.424417 2.041203 7.323800 -1.690119 -1.443382 12.972734 -0.981566 -1.186087 0.000000 0.000000 0.000000 12.966012 -1.022760 -1.189411 3.122168 -0.859578 -0.692142 -51.579345 1.594025 -8.096118 0.000000 0.000000 -0.000000 2.114947 -12.310446 6.918393 0.000000 0.000000 0.000000 -56.643872 -27.956564 -13.096901 -0.000026 -115.667683 -0.000034 -10.218834 -26.532478 32.956055 20.860417 4.360993 2.192170 0.281656 11.987408 -27.457775 -10.341470 22.896466 8.823437 0.000001 -0.000006 -0.000000 0.424581 1.444430 -13.825826 0.836219 3.018209 -30.965428 -0.000000 0.000000 -0.000001 0.528704 5.944115 -8.230275 0.952396 3.203601 -33.105954 0.000001 0.000001 -0.000002 0.929925 7.386424 -10.767149 1.068069 3.374071 -35.121953 -0.000000 0.000000 0.000001 0.271292 7.580353 -14.431321 0.945425 3.192900 -32.980975 0.000001 0.000000 0.000001 1.487714 11.465028 -3.085991 0.000000 0.000000 0.000000 -69.923105 33.437888 26.381899 0.000015 117.615994 -0.000006 12.013546 4.096479 -16.866129 0.464864 9.475461 18.592482 2.137303 -23.163717 17.507020 -9.699704 -24.359397 -9.837464 0.000000 -0.000002 -0.000003 2.450239 2.150671 1.735401 0.603671 -2.295031 29.470306 0.000000 0.000001 -0.000000 -0.030386 -3.619792 -3.132373 1.500525 -3.425891 47.296328 -0.000001 -0.000002 0.000000 0.239616 -6.342674 2.621535 0.613283 -2.311937 29.709373 -0.000001 -0.000001 0.000000 -11.640435 -11.618172 13.900761 0.284004 -1.603015 20.092419 -0.000001 0.000001 -0.000001 -113.130636 -9.385313 8.035778 85.432908 7.963557 0.207280 18.665920 -8.022056 -7.017681 -0.103114 0.000004 0.000000 -0.000000 -0.000001 0.000000 -114.961947 13.444485 -5.050684 86.334766 -7.331902 -1.898240 19.812190 1.352383 8.622881 -0.191630 0.000003 0.000001 -0.000000 -0.000000 0.000000 
0.372068 57.998085 7.067662 11.092693 1.523530 2.077300 7.559403 -1.641806 -1.451086 13.167884 -0.921942 -1.227743 0.000000 0.000000 0.000000 13.161524 -0.962647 -1.229826 4.847734 -0.977131 -0.865297 -50.472352 1.193751 -8.236322 -0.000000 -0.000000 -0.000001 2.167039 -12.215280 7.794459 0.000000 0.000000 0.000000 -54.283243 -27.085353 -14.223977 0.000009 -116.372449 0.000000 -9.191110 -25.254519 32.508384 20.860979 4.358175 2.190963 0.282783 11.986086 -27.457992 -10.341000 22.898298 8.825412 -0.000002 0.000001 0.000002 0.424236 1.444155 -13.823952 0.836228 3.018219 -30.965564 0.000001 -0.000000 0.000002 0.528792 5.944700 -8.230379 0.952386 3.203577 -33.105712 -0.000000 0.000000 -0.000002 0.929846 7.386551 -10.765684 1.068056 3.374060 -35.121816 0.000001 -0.000000 0.000000 0.271538 7.580725 -14.429905 0.945397 3.192868 -32.980566 0.000002 0.000000 0.000000 1.506035 11.775377 -2.798579 0.000000 0.000000 0.000000 -67.693616 33.040343 25.501042 0.000009 117.763212 -0.000021 11.410882 4.473172 -15.347870 0.463263 9.474901 18.591051 2.137471 -23.162049 17.507259 -9.697810 -24.358208 -9.835802 -0.000001 -0.000001 0.000001 2.451267 2.149758 1.734122 0.603626 -2.294953 29.469159 0.000000 0.000001 -0.000000 -0.030369 -3.619853 -3.131856 1.500463 -3.425837 47.295235 -0.000000 -0.000002 0.000000 0.239653 -6.342769 2.622044 0.613276 -2.311935 29.709376 0.000000 -0.000002 0.000000 -11.640138 -11.619117 13.900462 0.283973 -1.602926 20.091261 0.000001 -0.000001 -0.000001 -113.449224 -9.296712 7.931844 85.420456 8.012261 0.206620 18.703032 -8.024436 -7.023900 -0.103114 0.000005 0.000000 -0.000000 0.000000 -0.000000 -115.287323 13.617772 -5.049967 86.370249 -7.369834 -1.899007 19.849407 1.366800 8.687881 -0.191630 0.000003 0.000001 0.000000 -0.000000 0.000000 
